<!-- <svg width="30" height="16" viewBox="0 0 30 16" fill="none" xmlns="http://www.w3.org/2000/svg">
<path d="M1.54248 7C0.990196 7 0.54248 7.44772 0.54248 8C0.542481 8.55228 0.990196 9 1.54248 9L1.54248 7ZM29.7072 8.70711C30.0977 8.31658 30.0977 7.68342 29.7072 7.29289L23.3433 0.928931C22.9527 0.538407 22.3196 0.538407 21.929 0.928931C21.5385 1.31946 21.5385 1.95262 21.929 2.34314L27.5859 8L21.929 13.6569C21.5385 14.0474 21.5385 14.6805 21.929 15.0711C22.3196 15.4616 22.9527 15.4616 23.3433 15.0711L29.7072 8.70711ZM1.54248 9L29.0001 9L29.0001 7L1.54248 7L1.54248 9Z" fill="currentColor"/>
</svg> -->

<svg
          width="24"
          height="24"
          viewBox="0 0 24 24"
          fill="none"
          xmlns="http://www.w3.org/2000/svg"
        >
          <path
            d="M2 10.5C1.17157 10.5 0.5 11.1716 0.5 12C0.5 12.8284 1.17157 13.5 2 13.5L2 10.5ZM21.0607 13.0607C21.6464 12.4749 21.6464 11.5251 21.0607 10.9393L11.5147 1.3934C10.9289 0.807611 9.97918 0.807611 9.3934 1.3934C8.80761 1.97918 8.80761 2.92893 9.3934 3.51472L17.8787 12L9.3934 20.4853C8.80761 21.0711 8.80761 22.0208 9.3934 22.6066C9.97919 23.1924 10.9289 23.1924 11.5147 22.6066L21.0607 13.0607ZM2 13.5L20 13.5L20 10.5L2 10.5L2 13.5Z"
            fill="#ffffff"
          />
        </svg>