<svg width="30" height="16" viewBox="0 0 30 16" fill="none" xmlns="http://www.w3.org/2000/svg">
<path d="M1.54248 7C0.990196 7 0.54248 7.44772 0.54248 8C0.542481 8.55228 0.990196 9 1.54248 9L1.54248 7ZM29.7072 8.70711C30.0977 8.31658 30.0977 7.68342 29.7072 7.29289L23.3433 0.928931C22.9527 0.538407 22.3196 0.538407 21.929 0.928931C21.5385 1.31946 21.5385 1.95262 21.929 2.34314L27.5859 8L21.929 13.6569C21.5385 14.0474 21.5385 14.6805 21.929 15.0711C22.3196 15.4616 22.9527 15.4616 23.3433 15.0711L29.7072 8.70711ZM1.54248 9L29.0001 9L29.0001 7L1.54248 7L1.54248 9Z" fill="#C1FD35"/>
</svg>
